<svg xmlns="http://www.w3.org/2000/svg" viewBox="0 0 1440 320"><path fill="#a2d9ff" fill-opacity="1" d="M0,96L0,288L49.7,288L49.7,0L99.3,0L99.3,288L149,288L149,0L198.6,0L198.6,160L248.3,160L248.3,192L297.9,192L297.9,160L347.6,160L347.6,288L397.2,288L397.2,96L446.9,96L446.9,192L496.6,192L496.6,256L546.2,256L546.2,160L595.9,160L595.9,256L645.5,256L645.5,160L695.2,160L695.2,64L744.8,64L744.8,96L794.5,96L794.5,256L844.1,256L844.1,256L893.8,256L893.8,96L943.4,96L943.4,288L993.1,288L993.1,160L1042.8,160L1042.8,192L1092.4,192L1092.4,288L1142.1,288L1142.1,64L1191.7,64L1191.7,288L1241.4,288L1241.4,288L1291,288L1291,320L1340.7,320L1340.7,224L1390.3,224L1390.3,32L1440,32L1440,0L1390.3,0L1390.3,0L1340.7,0L1340.7,0L1291,0L1291,0L1241.4,0L1241.4,0L1191.7,0L1191.7,0L1142.1,0L1142.1,0L1092.4,0L1092.4,0L1042.8,0L1042.8,0L993.1,0L993.1,0L943.4,0L943.4,0L893.8,0L893.8,0L844.1,0L844.1,0L794.5,0L794.5,0L744.8,0L744.8,0L695.2,0L695.2,0L645.5,0L645.5,0L595.9,0L595.9,0L546.2,0L546.2,0L496.6,0L496.6,0L446.9,0L446.9,0L397.2,0L397.2,0L347.6,0L347.6,0L297.9,0L297.9,0L248.3,0L248.3,0L198.6,0L198.6,0L149,0L149,0L99.3,0L99.3,0L49.7,0L49.7,0L0,0L0,0Z"></path></svg>